<svg id="Capa_1" enable-background="new 0 0 512 512" height="512" viewBox="0 0 512 512" width="512" xmlns="http://www.w3.org/2000/svg" xmlns:xlink="http://www.w3.org/1999/xlink"><linearGradient id="SVGID_1_" gradientUnits="userSpaceOnUse" x1="256" x2="256" y1="512" y2="0"><stop offset="0" stop-color="#fd3a84"/><stop offset="1" stop-color="#ffa68d"/></linearGradient><g><g><path d="m256 212c-8.284 0-15 6.716-15 15s6.716 15 15 15 15-6.716 15-15-6.716-15-15-15zm60 180h-60c-8.284 0-15 6.716-15 15s6.716 15 15 15h60c8.284 0 15-6.716 15-15s-6.716-15-15-15zm0-60h-60c-8.284 0-15 6.716-15 15s6.716 15 15 15h60c8.284 0 15-6.716 15-15s-6.716-15-15-15zm-120-150c8.284 0 15-6.716 15-15s-6.716-15-15-15-15 6.716-15 15 6.716 15 15 15zm-10.606 55.606c2.928 2.93 6.767 4.394 10.606 4.394s7.678-1.464 10.606-4.394l60-60c5.858-5.858 5.858-15.355 0-21.213-5.857-5.858-15.355-5.858-21.213 0l-60 60c-5.857 5.858-5.857 15.356.001 21.213zm-49.394 64.394h180c8.284 0 15-6.716 15-15s-6.716-15-15-15h-180c-8.284 0-15 6.716-15 15s6.716 15 15 15zm300-302h-300c-8.284 0-15 6.716-15 15v45h-45c-8.284 0-15 6.716-15 15v422c0 8.284 6.716 15 15 15h300c8.284 0 15-6.716 15-15v-45h45c8.284 0 15-6.716 15-15v-422c0-8.284-6.716-15-15-15zm-75 482h-270v-392h270zm60-60h-30v-347c0-8.284-6.716-15-15-15h-225v-30h270zm-285 0h60c8.284 0 15-6.716 15-15s-6.716-15-15-15h-60c-8.284 0-15 6.716-15 15s6.716 15 15 15zm0-60h60c8.284 0 15-6.716 15-15s-6.716-15-15-15h-60c-8.284 0-15 6.716-15 15s6.716 15 15 15z" fill="url(#SVGID_1_)"/></g></g></svg>